<svg xmlns="http://www.w3.org/2000/svg" width="512" height="512" viewBox="0 0 512 512" version="1.1">
	<path d="M 240.661 1.822 C 239.125 3.519, 239.296 5.626, 243.181 32.834 C 247.203 61.002, 247.422 62.003, 249.424 61.431 C 250.566 61.105, 252.512 59.725, 253.750 58.363 C 255.971 55.921, 256 55.523, 256 27.944 L 256 0 249.155 0 C 243.803 0, 241.950 0.397, 240.661 1.822 M 145 50.900 C 142.525 51.230, 140.613 51.837, 140.750 52.250 C 140.887 52.663, 141 53.413, 141 53.918 C 141 54.424, 144.037 55.832, 147.750 57.048 C 161.743 61.632, 175.987 68.268, 186.806 75.243 L 193.113 79.308 181.306 83.653 C 111.327 109.402, 59.056 167.576, 41.649 239.080 C 37.142 257.593, 35.724 269.977, 35.702 291 C 35.679 313.109, 37.208 325.649, 42.488 346.645 C 54.319 393.690, 83.697 437.720, 123 467.311 C 224.998 544.104, 369.247 519.306, 439.968 412.821 C 464.488 375.900, 476.345 336.142, 476.298 291 C 476.261 255.126, 469.602 226.239, 454.055 194.500 C 428.722 142.784, 385.260 103.731, 330.694 83.653 L 318.887 79.308 325.194 75.243 C 335.988 68.284, 350.263 61.630, 364.163 57.077 C 370.442 55.021, 373.119 52.810, 370.952 51.470 C 368.395 49.890, 344.913 49.853, 333 51.410 C 315.519 53.696, 304.628 57.006, 289 64.782 C 276.967 70.770, 275.853 71.534, 278.750 71.813 C 281.550 72.083, 282 72.506, 282 74.867 C 282 82.161, 273.510 92.623, 265.175 95.600 C 260.462 97.283, 251.538 97.283, 246.825 95.600 C 238.490 92.623, 230 82.161, 230 74.867 C 230 72.506, 230.450 72.083, 233.250 71.813 C 236.147 71.534, 235.033 70.770, 223 64.782 C 215.575 61.088, 205.450 56.936, 200.500 55.557 C 184.166 51.005, 159.646 48.948, 145 50.900 M 166.421 197.419 C 162.802 198.995, 160.474 203.766, 161.442 207.625 C 162.318 211.114, 173.592 222.882, 177.750 224.647 C 180.528 225.827, 181.496 225.819, 184.420 224.598 C 188.374 222.946, 190 220.431, 190 215.969 C 190 213.425, 188.678 211.428, 183.250 205.771 C 179.537 201.903, 175.052 198.121, 173.282 197.369 C 169.502 195.761, 170.241 195.756, 166.421 197.419 M 338.500 197.409 C 336.850 198.141, 332.462 201.905, 328.750 205.773 C 323.322 211.428, 322 213.425, 322 215.969 C 322 220.431, 323.626 222.946, 327.580 224.598 C 330.504 225.819, 331.472 225.827, 334.250 224.647 C 338.408 222.882, 349.682 211.114, 350.558 207.625 C 351.560 203.633, 349.201 198.982, 345.360 197.377 C 341.490 195.760, 342.225 195.757, 338.500 197.409 M 178 357.695 C 175.718 358.513, 164.042 370.137, 162.425 373.200 C 160.373 377.089, 160.654 379.435, 163.589 382.923 C 165.692 385.422, 166.935 386, 170.210 386 C 173.912 386, 174.888 385.354, 182.121 378.121 C 189.279 370.963, 189.997 369.888, 189.968 366.371 C 189.912 359.537, 184.272 355.448, 178 357.695 M 326.500 358.158 C 323.240 360.109, 322.066 362.269, 322.032 366.371 C 322.003 369.888, 322.721 370.963, 329.879 378.121 C 337.112 385.354, 338.088 386, 341.790 386 C 345.065 386, 346.308 385.422, 348.411 382.923 C 352.917 377.569, 351.618 373.912, 341.766 364.218 C 334.988 357.548, 330.496 355.765, 326.500 358.158" stroke="none" fill="black" fill-rule="evenodd"/>
</svg>